# xmcd
#
# Track frame offsets: 
#        150
#        64620
#        77600
#        85805
#        122340
#
# Disc length: 2156 seconds
#
# Revision: 0
# Processed by: cddbd v1.5.2PL0 Copyright (c) Steve Scherf et al.
# Submitted via: ExactAudioCopy v0.99pb4
#
DISCID=2e086a05
DTITLE=The Geezinslaws - Are Alive (and well?)
DYEAR=1969
DGENRE=Country
TTITLE0=Sally Was a Good Old Girl
TTITLE1=Ballad of Joe Bean
TTITLE2=The Bicycle Wreck
TTITLE3=On the Street Where You Live
TTITLE4=I Couldn't Spell Yuuk
EXTD=
EXTT0=
EXTT1=
EXTT2=
EXTT3=
EXTT4=
PLAYORDER=
